<mxfile host="app.diagrams.net" agent="Mozilla/5.0 (Windows NT 10.0; Win64; x64) AppleWebKit/537.36 (KHTML, like Gecko) Chrome/137.0.0.0 Safari/537.36" version="27.1.6">
  <diagram name="Page-1" id="16e2658f-23c8-b752-8be9-c03fbebb8bbe">
    <mxGraphModel dx="1042" dy="1392" grid="1" gridSize="10" guides="1" tooltips="1" connect="1" arrows="1" fold="1" page="1" pageScale="1" pageWidth="1100" pageHeight="850" background="none" math="0" shadow="0">
      <root>
        <mxCell id="0" />
        <mxCell id="1" parent="0" />
        <mxCell id="ZxSBbp-IphkqUdOfR0Vp-218" value="" style="rounded=0;whiteSpace=wrap;html=1;" parent="1" vertex="1">
          <mxGeometry x="60" y="100" width="740" height="500" as="geometry" />
        </mxCell>
        <mxCell id="ZxSBbp-IphkqUdOfR0Vp-9" value="" style="endArrow=none;html=1;rounded=0;" parent="1" edge="1">
          <mxGeometry width="50" height="50" relative="1" as="geometry">
            <mxPoint x="140" y="159.52" as="sourcePoint" />
            <mxPoint x="140" y="119.52" as="targetPoint" />
          </mxGeometry>
        </mxCell>
        <mxCell id="ZxSBbp-IphkqUdOfR0Vp-10" value="" style="endArrow=none;html=1;rounded=0;" parent="1" edge="1">
          <mxGeometry width="50" height="50" relative="1" as="geometry">
            <mxPoint x="159.86" y="159.52" as="sourcePoint" />
            <mxPoint x="159.86" y="119.52" as="targetPoint" />
          </mxGeometry>
        </mxCell>
        <mxCell id="ZxSBbp-IphkqUdOfR0Vp-11" value="" style="endArrow=none;html=1;rounded=0;" parent="1" edge="1">
          <mxGeometry width="50" height="50" relative="1" as="geometry">
            <mxPoint x="140" y="119.52" as="sourcePoint" />
            <mxPoint x="160" y="119.52" as="targetPoint" />
          </mxGeometry>
        </mxCell>
        <mxCell id="ZxSBbp-IphkqUdOfR0Vp-12" value="" style="endArrow=none;html=1;rounded=0;" parent="1" edge="1">
          <mxGeometry width="50" height="50" relative="1" as="geometry">
            <mxPoint x="160" y="159.52" as="sourcePoint" />
            <mxPoint x="180" y="159.52" as="targetPoint" />
          </mxGeometry>
        </mxCell>
        <mxCell id="ZxSBbp-IphkqUdOfR0Vp-13" value="" style="endArrow=none;html=1;rounded=0;" parent="1" edge="1">
          <mxGeometry width="50" height="50" relative="1" as="geometry">
            <mxPoint x="180" y="159.52" as="sourcePoint" />
            <mxPoint x="180" y="119.52" as="targetPoint" />
          </mxGeometry>
        </mxCell>
        <mxCell id="ZxSBbp-IphkqUdOfR0Vp-14" value="" style="endArrow=none;html=1;rounded=0;" parent="1" edge="1">
          <mxGeometry width="50" height="50" relative="1" as="geometry">
            <mxPoint x="199.86" y="159.52" as="sourcePoint" />
            <mxPoint x="199.86" y="119.52" as="targetPoint" />
          </mxGeometry>
        </mxCell>
        <mxCell id="ZxSBbp-IphkqUdOfR0Vp-15" value="" style="endArrow=none;html=1;rounded=0;" parent="1" edge="1">
          <mxGeometry width="50" height="50" relative="1" as="geometry">
            <mxPoint x="180" y="119.52" as="sourcePoint" />
            <mxPoint x="200" y="119.52" as="targetPoint" />
          </mxGeometry>
        </mxCell>
        <mxCell id="ZxSBbp-IphkqUdOfR0Vp-16" value="" style="endArrow=none;html=1;rounded=0;" parent="1" edge="1">
          <mxGeometry width="50" height="50" relative="1" as="geometry">
            <mxPoint x="200" y="159.52" as="sourcePoint" />
            <mxPoint x="220" y="159.52" as="targetPoint" />
          </mxGeometry>
        </mxCell>
        <mxCell id="ZxSBbp-IphkqUdOfR0Vp-17" value="" style="endArrow=none;html=1;rounded=0;" parent="1" edge="1">
          <mxGeometry width="50" height="50" relative="1" as="geometry">
            <mxPoint x="220" y="159.52" as="sourcePoint" />
            <mxPoint x="220" y="119.52" as="targetPoint" />
          </mxGeometry>
        </mxCell>
        <mxCell id="ZxSBbp-IphkqUdOfR0Vp-18" value="" style="endArrow=none;html=1;rounded=0;" parent="1" edge="1">
          <mxGeometry width="50" height="50" relative="1" as="geometry">
            <mxPoint x="239.86" y="159.52" as="sourcePoint" />
            <mxPoint x="239.86" y="119.52" as="targetPoint" />
          </mxGeometry>
        </mxCell>
        <mxCell id="ZxSBbp-IphkqUdOfR0Vp-19" value="" style="endArrow=none;html=1;rounded=0;" parent="1" edge="1">
          <mxGeometry width="50" height="50" relative="1" as="geometry">
            <mxPoint x="220" y="119.52" as="sourcePoint" />
            <mxPoint x="240" y="119.52" as="targetPoint" />
          </mxGeometry>
        </mxCell>
        <mxCell id="ZxSBbp-IphkqUdOfR0Vp-20" value="" style="endArrow=none;html=1;rounded=0;" parent="1" edge="1">
          <mxGeometry width="50" height="50" relative="1" as="geometry">
            <mxPoint x="240" y="159.52" as="sourcePoint" />
            <mxPoint x="260" y="159.52" as="targetPoint" />
          </mxGeometry>
        </mxCell>
        <mxCell id="ZxSBbp-IphkqUdOfR0Vp-21" value="" style="endArrow=none;html=1;rounded=0;" parent="1" edge="1">
          <mxGeometry width="50" height="50" relative="1" as="geometry">
            <mxPoint x="260" y="159.52" as="sourcePoint" />
            <mxPoint x="260" y="119.52" as="targetPoint" />
          </mxGeometry>
        </mxCell>
        <mxCell id="ZxSBbp-IphkqUdOfR0Vp-22" value="" style="endArrow=none;html=1;rounded=0;" parent="1" edge="1">
          <mxGeometry width="50" height="50" relative="1" as="geometry">
            <mxPoint x="279.86" y="159.52" as="sourcePoint" />
            <mxPoint x="279.86" y="119.52" as="targetPoint" />
          </mxGeometry>
        </mxCell>
        <mxCell id="ZxSBbp-IphkqUdOfR0Vp-23" value="" style="endArrow=none;html=1;rounded=0;" parent="1" edge="1">
          <mxGeometry width="50" height="50" relative="1" as="geometry">
            <mxPoint x="260" y="119.52" as="sourcePoint" />
            <mxPoint x="280" y="119.52" as="targetPoint" />
          </mxGeometry>
        </mxCell>
        <mxCell id="ZxSBbp-IphkqUdOfR0Vp-24" value="" style="endArrow=none;html=1;rounded=0;" parent="1" edge="1">
          <mxGeometry width="50" height="50" relative="1" as="geometry">
            <mxPoint x="280" y="159.52" as="sourcePoint" />
            <mxPoint x="300" y="159.52" as="targetPoint" />
          </mxGeometry>
        </mxCell>
        <mxCell id="ZxSBbp-IphkqUdOfR0Vp-25" value="" style="endArrow=none;html=1;rounded=0;" parent="1" edge="1">
          <mxGeometry width="50" height="50" relative="1" as="geometry">
            <mxPoint x="300" y="159.52" as="sourcePoint" />
            <mxPoint x="300" y="119.52" as="targetPoint" />
          </mxGeometry>
        </mxCell>
        <mxCell id="ZxSBbp-IphkqUdOfR0Vp-26" value="" style="endArrow=none;html=1;rounded=0;" parent="1" edge="1">
          <mxGeometry width="50" height="50" relative="1" as="geometry">
            <mxPoint x="319.86" y="159.52" as="sourcePoint" />
            <mxPoint x="319.86" y="119.52" as="targetPoint" />
          </mxGeometry>
        </mxCell>
        <mxCell id="ZxSBbp-IphkqUdOfR0Vp-27" value="" style="endArrow=none;html=1;rounded=0;" parent="1" edge="1">
          <mxGeometry width="50" height="50" relative="1" as="geometry">
            <mxPoint x="300" y="119.52" as="sourcePoint" />
            <mxPoint x="320" y="119.52" as="targetPoint" />
          </mxGeometry>
        </mxCell>
        <mxCell id="ZxSBbp-IphkqUdOfR0Vp-28" value="" style="endArrow=none;html=1;rounded=0;" parent="1" edge="1">
          <mxGeometry width="50" height="50" relative="1" as="geometry">
            <mxPoint x="320" y="159.52" as="sourcePoint" />
            <mxPoint x="340" y="159.52" as="targetPoint" />
          </mxGeometry>
        </mxCell>
        <mxCell id="ZxSBbp-IphkqUdOfR0Vp-29" value="" style="endArrow=none;html=1;rounded=0;" parent="1" edge="1">
          <mxGeometry width="50" height="50" relative="1" as="geometry">
            <mxPoint x="340" y="159.52" as="sourcePoint" />
            <mxPoint x="340" y="119.52" as="targetPoint" />
          </mxGeometry>
        </mxCell>
        <mxCell id="ZxSBbp-IphkqUdOfR0Vp-30" value="" style="endArrow=none;html=1;rounded=0;" parent="1" edge="1">
          <mxGeometry width="50" height="50" relative="1" as="geometry">
            <mxPoint x="359.86" y="159.52" as="sourcePoint" />
            <mxPoint x="359.86" y="119.52" as="targetPoint" />
          </mxGeometry>
        </mxCell>
        <mxCell id="ZxSBbp-IphkqUdOfR0Vp-31" value="" style="endArrow=none;html=1;rounded=0;" parent="1" edge="1">
          <mxGeometry width="50" height="50" relative="1" as="geometry">
            <mxPoint x="340" y="119.52" as="sourcePoint" />
            <mxPoint x="360" y="119.52" as="targetPoint" />
          </mxGeometry>
        </mxCell>
        <mxCell id="ZxSBbp-IphkqUdOfR0Vp-32" value="" style="endArrow=none;html=1;rounded=0;" parent="1" edge="1">
          <mxGeometry width="50" height="50" relative="1" as="geometry">
            <mxPoint x="360" y="159.52" as="sourcePoint" />
            <mxPoint x="380" y="159.52" as="targetPoint" />
          </mxGeometry>
        </mxCell>
        <mxCell id="ZxSBbp-IphkqUdOfR0Vp-33" value="" style="endArrow=none;html=1;rounded=0;" parent="1" edge="1">
          <mxGeometry width="50" height="50" relative="1" as="geometry">
            <mxPoint x="380" y="159.52" as="sourcePoint" />
            <mxPoint x="380" y="119.52" as="targetPoint" />
          </mxGeometry>
        </mxCell>
        <mxCell id="ZxSBbp-IphkqUdOfR0Vp-34" value="" style="endArrow=none;html=1;rounded=0;" parent="1" edge="1">
          <mxGeometry width="50" height="50" relative="1" as="geometry">
            <mxPoint x="399.86" y="159.52" as="sourcePoint" />
            <mxPoint x="399.86" y="119.52" as="targetPoint" />
          </mxGeometry>
        </mxCell>
        <mxCell id="ZxSBbp-IphkqUdOfR0Vp-35" value="" style="endArrow=none;html=1;rounded=0;" parent="1" edge="1">
          <mxGeometry width="50" height="50" relative="1" as="geometry">
            <mxPoint x="380" y="119.52" as="sourcePoint" />
            <mxPoint x="400" y="119.52" as="targetPoint" />
          </mxGeometry>
        </mxCell>
        <mxCell id="ZxSBbp-IphkqUdOfR0Vp-36" value="" style="endArrow=none;html=1;rounded=0;" parent="1" edge="1">
          <mxGeometry width="50" height="50" relative="1" as="geometry">
            <mxPoint x="400" y="159.52" as="sourcePoint" />
            <mxPoint x="420" y="159.52" as="targetPoint" />
          </mxGeometry>
        </mxCell>
        <mxCell id="ZxSBbp-IphkqUdOfR0Vp-37" value="" style="endArrow=none;html=1;rounded=0;" parent="1" edge="1">
          <mxGeometry width="50" height="50" relative="1" as="geometry">
            <mxPoint x="420" y="159.52" as="sourcePoint" />
            <mxPoint x="420" y="119.52" as="targetPoint" />
          </mxGeometry>
        </mxCell>
        <mxCell id="ZxSBbp-IphkqUdOfR0Vp-38" value="" style="endArrow=none;html=1;rounded=0;" parent="1" edge="1">
          <mxGeometry width="50" height="50" relative="1" as="geometry">
            <mxPoint x="439.86" y="159.52" as="sourcePoint" />
            <mxPoint x="439.86" y="119.52" as="targetPoint" />
          </mxGeometry>
        </mxCell>
        <mxCell id="ZxSBbp-IphkqUdOfR0Vp-39" value="" style="endArrow=none;html=1;rounded=0;" parent="1" edge="1">
          <mxGeometry width="50" height="50" relative="1" as="geometry">
            <mxPoint x="420" y="119.52" as="sourcePoint" />
            <mxPoint x="440" y="119.52" as="targetPoint" />
          </mxGeometry>
        </mxCell>
        <mxCell id="ZxSBbp-IphkqUdOfR0Vp-40" value="" style="endArrow=none;html=1;rounded=0;" parent="1" edge="1">
          <mxGeometry width="50" height="50" relative="1" as="geometry">
            <mxPoint x="440" y="159.52" as="sourcePoint" />
            <mxPoint x="460" y="159.52" as="targetPoint" />
          </mxGeometry>
        </mxCell>
        <mxCell id="ZxSBbp-IphkqUdOfR0Vp-57" value="" style="endArrow=none;html=1;rounded=0;" parent="1" edge="1">
          <mxGeometry width="50" height="50" relative="1" as="geometry">
            <mxPoint x="140" y="220" as="sourcePoint" />
            <mxPoint x="140" y="180" as="targetPoint" />
          </mxGeometry>
        </mxCell>
        <mxCell id="ZxSBbp-IphkqUdOfR0Vp-58" value="" style="endArrow=none;html=1;rounded=0;" parent="1" edge="1">
          <mxGeometry width="50" height="50" relative="1" as="geometry">
            <mxPoint x="180" y="220" as="sourcePoint" />
            <mxPoint x="180" y="180" as="targetPoint" />
          </mxGeometry>
        </mxCell>
        <mxCell id="ZxSBbp-IphkqUdOfR0Vp-59" value="" style="endArrow=none;html=1;rounded=0;" parent="1" edge="1">
          <mxGeometry width="50" height="50" relative="1" as="geometry">
            <mxPoint x="140" y="180" as="sourcePoint" />
            <mxPoint x="180" y="180" as="targetPoint" />
          </mxGeometry>
        </mxCell>
        <mxCell id="ZxSBbp-IphkqUdOfR0Vp-61" value="" style="endArrow=none;html=1;rounded=0;" parent="1" edge="1">
          <mxGeometry width="50" height="50" relative="1" as="geometry">
            <mxPoint x="180" y="220" as="sourcePoint" />
            <mxPoint x="200" y="220" as="targetPoint" />
          </mxGeometry>
        </mxCell>
        <mxCell id="ZxSBbp-IphkqUdOfR0Vp-62" value="" style="endArrow=none;html=1;rounded=0;" parent="1" edge="1">
          <mxGeometry width="50" height="50" relative="1" as="geometry">
            <mxPoint x="200" y="220" as="sourcePoint" />
            <mxPoint x="200" y="180" as="targetPoint" />
          </mxGeometry>
        </mxCell>
        <mxCell id="ZxSBbp-IphkqUdOfR0Vp-63" value="" style="endArrow=none;html=1;rounded=0;" parent="1" edge="1">
          <mxGeometry width="50" height="50" relative="1" as="geometry">
            <mxPoint x="240" y="220" as="sourcePoint" />
            <mxPoint x="240" y="180" as="targetPoint" />
          </mxGeometry>
        </mxCell>
        <mxCell id="ZxSBbp-IphkqUdOfR0Vp-64" value="" style="endArrow=none;html=1;rounded=0;" parent="1" edge="1">
          <mxGeometry width="50" height="50" relative="1" as="geometry">
            <mxPoint x="200" y="180" as="sourcePoint" />
            <mxPoint x="240" y="180" as="targetPoint" />
          </mxGeometry>
        </mxCell>
        <mxCell id="ZxSBbp-IphkqUdOfR0Vp-65" value="" style="endArrow=none;html=1;rounded=0;" parent="1" edge="1">
          <mxGeometry width="50" height="50" relative="1" as="geometry">
            <mxPoint x="240" y="220" as="sourcePoint" />
            <mxPoint x="280" y="220" as="targetPoint" />
          </mxGeometry>
        </mxCell>
        <mxCell id="ZxSBbp-IphkqUdOfR0Vp-66" value="" style="endArrow=none;html=1;rounded=0;" parent="1" edge="1">
          <mxGeometry width="50" height="50" relative="1" as="geometry">
            <mxPoint x="280" y="220" as="sourcePoint" />
            <mxPoint x="280" y="180" as="targetPoint" />
          </mxGeometry>
        </mxCell>
        <mxCell id="ZxSBbp-IphkqUdOfR0Vp-67" value="" style="endArrow=none;html=1;rounded=0;" parent="1" edge="1">
          <mxGeometry width="50" height="50" relative="1" as="geometry">
            <mxPoint x="320" y="220" as="sourcePoint" />
            <mxPoint x="320" y="180" as="targetPoint" />
          </mxGeometry>
        </mxCell>
        <mxCell id="ZxSBbp-IphkqUdOfR0Vp-68" value="" style="endArrow=none;html=1;rounded=0;" parent="1" edge="1">
          <mxGeometry width="50" height="50" relative="1" as="geometry">
            <mxPoint x="280" y="180" as="sourcePoint" />
            <mxPoint x="320" y="180" as="targetPoint" />
          </mxGeometry>
        </mxCell>
        <mxCell id="ZxSBbp-IphkqUdOfR0Vp-69" value="" style="endArrow=none;html=1;rounded=0;" parent="1" edge="1">
          <mxGeometry width="50" height="50" relative="1" as="geometry">
            <mxPoint x="320" y="220" as="sourcePoint" />
            <mxPoint x="340" y="220" as="targetPoint" />
          </mxGeometry>
        </mxCell>
        <mxCell id="ZxSBbp-IphkqUdOfR0Vp-70" value="" style="endArrow=none;html=1;rounded=0;" parent="1" edge="1">
          <mxGeometry width="50" height="50" relative="1" as="geometry">
            <mxPoint x="340" y="220" as="sourcePoint" />
            <mxPoint x="340" y="180" as="targetPoint" />
          </mxGeometry>
        </mxCell>
        <mxCell id="ZxSBbp-IphkqUdOfR0Vp-71" value="" style="endArrow=none;html=1;rounded=0;" parent="1" edge="1">
          <mxGeometry width="50" height="50" relative="1" as="geometry">
            <mxPoint x="380" y="220" as="sourcePoint" />
            <mxPoint x="380" y="180" as="targetPoint" />
          </mxGeometry>
        </mxCell>
        <mxCell id="ZxSBbp-IphkqUdOfR0Vp-72" value="" style="endArrow=none;html=1;rounded=0;" parent="1" edge="1">
          <mxGeometry width="50" height="50" relative="1" as="geometry">
            <mxPoint x="340" y="180" as="sourcePoint" />
            <mxPoint x="380" y="180" as="targetPoint" />
          </mxGeometry>
        </mxCell>
        <mxCell id="ZxSBbp-IphkqUdOfR0Vp-73" value="" style="endArrow=none;html=1;rounded=0;" parent="1" edge="1">
          <mxGeometry width="50" height="50" relative="1" as="geometry">
            <mxPoint x="380" y="220" as="sourcePoint" />
            <mxPoint x="420" y="220" as="targetPoint" />
          </mxGeometry>
        </mxCell>
        <mxCell id="ZxSBbp-IphkqUdOfR0Vp-90" value="" style="endArrow=none;html=1;rounded=0;" parent="1" edge="1">
          <mxGeometry width="50" height="50" relative="1" as="geometry">
            <mxPoint x="460" y="159.52" as="sourcePoint" />
            <mxPoint x="460" y="119.52" as="targetPoint" />
          </mxGeometry>
        </mxCell>
        <mxCell id="ZxSBbp-IphkqUdOfR0Vp-91" value="" style="endArrow=none;html=1;rounded=0;" parent="1" edge="1">
          <mxGeometry width="50" height="50" relative="1" as="geometry">
            <mxPoint x="479.86" y="159.52" as="sourcePoint" />
            <mxPoint x="479.86" y="119.52" as="targetPoint" />
          </mxGeometry>
        </mxCell>
        <mxCell id="ZxSBbp-IphkqUdOfR0Vp-92" value="" style="endArrow=none;html=1;rounded=0;" parent="1" edge="1">
          <mxGeometry width="50" height="50" relative="1" as="geometry">
            <mxPoint x="460" y="119.52" as="sourcePoint" />
            <mxPoint x="480" y="119.52" as="targetPoint" />
          </mxGeometry>
        </mxCell>
        <mxCell id="ZxSBbp-IphkqUdOfR0Vp-93" value="" style="endArrow=none;html=1;rounded=0;" parent="1" edge="1">
          <mxGeometry width="50" height="50" relative="1" as="geometry">
            <mxPoint x="480" y="159.52" as="sourcePoint" />
            <mxPoint x="500" y="159.52" as="targetPoint" />
          </mxGeometry>
        </mxCell>
        <mxCell id="ZxSBbp-IphkqUdOfR0Vp-94" value="" style="endArrow=none;html=1;rounded=0;" parent="1" edge="1">
          <mxGeometry width="50" height="50" relative="1" as="geometry">
            <mxPoint x="500" y="159.52" as="sourcePoint" />
            <mxPoint x="500" y="119.52" as="targetPoint" />
          </mxGeometry>
        </mxCell>
        <mxCell id="ZxSBbp-IphkqUdOfR0Vp-95" value="" style="endArrow=none;html=1;rounded=0;" parent="1" edge="1">
          <mxGeometry width="50" height="50" relative="1" as="geometry">
            <mxPoint x="519.86" y="159.52" as="sourcePoint" />
            <mxPoint x="519.86" y="119.52" as="targetPoint" />
          </mxGeometry>
        </mxCell>
        <mxCell id="ZxSBbp-IphkqUdOfR0Vp-96" value="" style="endArrow=none;html=1;rounded=0;" parent="1" edge="1">
          <mxGeometry width="50" height="50" relative="1" as="geometry">
            <mxPoint x="500" y="119.52" as="sourcePoint" />
            <mxPoint x="520" y="119.52" as="targetPoint" />
          </mxGeometry>
        </mxCell>
        <mxCell id="ZxSBbp-IphkqUdOfR0Vp-97" value="" style="endArrow=none;html=1;rounded=0;" parent="1" edge="1">
          <mxGeometry width="50" height="50" relative="1" as="geometry">
            <mxPoint x="520" y="159.52" as="sourcePoint" />
            <mxPoint x="540" y="159.52" as="targetPoint" />
          </mxGeometry>
        </mxCell>
        <mxCell id="ZxSBbp-IphkqUdOfR0Vp-98" value="" style="endArrow=none;html=1;rounded=0;" parent="1" edge="1">
          <mxGeometry width="50" height="50" relative="1" as="geometry">
            <mxPoint x="540" y="159.52" as="sourcePoint" />
            <mxPoint x="540" y="119.52" as="targetPoint" />
          </mxGeometry>
        </mxCell>
        <mxCell id="ZxSBbp-IphkqUdOfR0Vp-99" value="" style="endArrow=none;html=1;rounded=0;" parent="1" edge="1">
          <mxGeometry width="50" height="50" relative="1" as="geometry">
            <mxPoint x="559.86" y="159.52" as="sourcePoint" />
            <mxPoint x="559.86" y="119.52" as="targetPoint" />
          </mxGeometry>
        </mxCell>
        <mxCell id="ZxSBbp-IphkqUdOfR0Vp-100" value="" style="endArrow=none;html=1;rounded=0;" parent="1" edge="1">
          <mxGeometry width="50" height="50" relative="1" as="geometry">
            <mxPoint x="540" y="119.52" as="sourcePoint" />
            <mxPoint x="560" y="119.52" as="targetPoint" />
          </mxGeometry>
        </mxCell>
        <mxCell id="ZxSBbp-IphkqUdOfR0Vp-101" value="" style="endArrow=none;html=1;rounded=0;" parent="1" edge="1">
          <mxGeometry width="50" height="50" relative="1" as="geometry">
            <mxPoint x="560" y="159.52" as="sourcePoint" />
            <mxPoint x="580" y="159.52" as="targetPoint" />
          </mxGeometry>
        </mxCell>
        <mxCell id="ZxSBbp-IphkqUdOfR0Vp-102" value="" style="endArrow=none;html=1;rounded=0;" parent="1" edge="1">
          <mxGeometry width="50" height="50" relative="1" as="geometry">
            <mxPoint x="580" y="159.52" as="sourcePoint" />
            <mxPoint x="580" y="119.52" as="targetPoint" />
          </mxGeometry>
        </mxCell>
        <mxCell id="ZxSBbp-IphkqUdOfR0Vp-103" value="" style="endArrow=none;html=1;rounded=0;" parent="1" edge="1">
          <mxGeometry width="50" height="50" relative="1" as="geometry">
            <mxPoint x="599.86" y="159.52" as="sourcePoint" />
            <mxPoint x="599.86" y="119.52" as="targetPoint" />
          </mxGeometry>
        </mxCell>
        <mxCell id="ZxSBbp-IphkqUdOfR0Vp-104" value="" style="endArrow=none;html=1;rounded=0;" parent="1" edge="1">
          <mxGeometry width="50" height="50" relative="1" as="geometry">
            <mxPoint x="580" y="119.52" as="sourcePoint" />
            <mxPoint x="600" y="119.52" as="targetPoint" />
          </mxGeometry>
        </mxCell>
        <mxCell id="ZxSBbp-IphkqUdOfR0Vp-105" value="" style="endArrow=none;html=1;rounded=0;" parent="1" edge="1">
          <mxGeometry width="50" height="50" relative="1" as="geometry">
            <mxPoint x="600" y="159.52" as="sourcePoint" />
            <mxPoint x="620" y="159.52" as="targetPoint" />
          </mxGeometry>
        </mxCell>
        <mxCell id="ZxSBbp-IphkqUdOfR0Vp-106" value="" style="endArrow=none;html=1;rounded=0;" parent="1" edge="1">
          <mxGeometry width="50" height="50" relative="1" as="geometry">
            <mxPoint x="620" y="159.52" as="sourcePoint" />
            <mxPoint x="620" y="119.52" as="targetPoint" />
          </mxGeometry>
        </mxCell>
        <mxCell id="ZxSBbp-IphkqUdOfR0Vp-107" value="" style="endArrow=none;html=1;rounded=0;" parent="1" edge="1">
          <mxGeometry width="50" height="50" relative="1" as="geometry">
            <mxPoint x="639.86" y="159.52" as="sourcePoint" />
            <mxPoint x="639.86" y="119.52" as="targetPoint" />
          </mxGeometry>
        </mxCell>
        <mxCell id="ZxSBbp-IphkqUdOfR0Vp-108" value="" style="endArrow=none;html=1;rounded=0;" parent="1" edge="1">
          <mxGeometry width="50" height="50" relative="1" as="geometry">
            <mxPoint x="620" y="119.52" as="sourcePoint" />
            <mxPoint x="640" y="119.52" as="targetPoint" />
          </mxGeometry>
        </mxCell>
        <mxCell id="ZxSBbp-IphkqUdOfR0Vp-109" value="" style="endArrow=none;html=1;rounded=0;" parent="1" edge="1">
          <mxGeometry width="50" height="50" relative="1" as="geometry">
            <mxPoint x="640" y="159.52" as="sourcePoint" />
            <mxPoint x="660" y="159.52" as="targetPoint" />
          </mxGeometry>
        </mxCell>
        <mxCell id="ZxSBbp-IphkqUdOfR0Vp-110" value="" style="endArrow=none;html=1;rounded=0;" parent="1" edge="1">
          <mxGeometry width="50" height="50" relative="1" as="geometry">
            <mxPoint x="660" y="159.52" as="sourcePoint" />
            <mxPoint x="660" y="119.52" as="targetPoint" />
          </mxGeometry>
        </mxCell>
        <mxCell id="ZxSBbp-IphkqUdOfR0Vp-111" value="" style="endArrow=none;html=1;rounded=0;" parent="1" edge="1">
          <mxGeometry width="50" height="50" relative="1" as="geometry">
            <mxPoint x="679.86" y="159.52" as="sourcePoint" />
            <mxPoint x="679.86" y="119.52" as="targetPoint" />
          </mxGeometry>
        </mxCell>
        <mxCell id="ZxSBbp-IphkqUdOfR0Vp-112" value="" style="endArrow=none;html=1;rounded=0;" parent="1" edge="1">
          <mxGeometry width="50" height="50" relative="1" as="geometry">
            <mxPoint x="660" y="119.52" as="sourcePoint" />
            <mxPoint x="680" y="119.52" as="targetPoint" />
          </mxGeometry>
        </mxCell>
        <mxCell id="ZxSBbp-IphkqUdOfR0Vp-113" value="" style="endArrow=none;html=1;rounded=0;" parent="1" edge="1">
          <mxGeometry width="50" height="50" relative="1" as="geometry">
            <mxPoint x="680" y="159.52" as="sourcePoint" />
            <mxPoint x="700" y="159.52" as="targetPoint" />
          </mxGeometry>
        </mxCell>
        <mxCell id="ZxSBbp-IphkqUdOfR0Vp-114" value="" style="endArrow=none;html=1;rounded=0;" parent="1" edge="1">
          <mxGeometry width="50" height="50" relative="1" as="geometry">
            <mxPoint x="700" y="159.52" as="sourcePoint" />
            <mxPoint x="700" y="119.52" as="targetPoint" />
          </mxGeometry>
        </mxCell>
        <mxCell id="ZxSBbp-IphkqUdOfR0Vp-115" value="" style="endArrow=none;html=1;rounded=0;" parent="1" edge="1">
          <mxGeometry width="50" height="50" relative="1" as="geometry">
            <mxPoint x="719.86" y="159.52" as="sourcePoint" />
            <mxPoint x="719.86" y="119.52" as="targetPoint" />
          </mxGeometry>
        </mxCell>
        <mxCell id="ZxSBbp-IphkqUdOfR0Vp-116" value="" style="endArrow=none;html=1;rounded=0;" parent="1" edge="1">
          <mxGeometry width="50" height="50" relative="1" as="geometry">
            <mxPoint x="700" y="119.52" as="sourcePoint" />
            <mxPoint x="720" y="119.52" as="targetPoint" />
          </mxGeometry>
        </mxCell>
        <mxCell id="ZxSBbp-IphkqUdOfR0Vp-117" value="" style="endArrow=none;html=1;rounded=0;" parent="1" edge="1">
          <mxGeometry width="50" height="50" relative="1" as="geometry">
            <mxPoint x="720" y="159.52" as="sourcePoint" />
            <mxPoint x="740" y="159.52" as="targetPoint" />
          </mxGeometry>
        </mxCell>
        <mxCell id="ZxSBbp-IphkqUdOfR0Vp-118" value="" style="endArrow=none;html=1;rounded=0;" parent="1" edge="1">
          <mxGeometry width="50" height="50" relative="1" as="geometry">
            <mxPoint x="740" y="159.52" as="sourcePoint" />
            <mxPoint x="740" y="119.52" as="targetPoint" />
          </mxGeometry>
        </mxCell>
        <mxCell id="ZxSBbp-IphkqUdOfR0Vp-119" value="" style="endArrow=none;html=1;rounded=0;" parent="1" edge="1">
          <mxGeometry width="50" height="50" relative="1" as="geometry">
            <mxPoint x="759.86" y="159.52" as="sourcePoint" />
            <mxPoint x="759.86" y="119.52" as="targetPoint" />
          </mxGeometry>
        </mxCell>
        <mxCell id="ZxSBbp-IphkqUdOfR0Vp-120" value="" style="endArrow=none;html=1;rounded=0;" parent="1" edge="1">
          <mxGeometry width="50" height="50" relative="1" as="geometry">
            <mxPoint x="740" y="119.52" as="sourcePoint" />
            <mxPoint x="760" y="119.52" as="targetPoint" />
          </mxGeometry>
        </mxCell>
        <mxCell id="ZxSBbp-IphkqUdOfR0Vp-121" value="" style="endArrow=none;html=1;rounded=0;" parent="1" edge="1">
          <mxGeometry width="50" height="50" relative="1" as="geometry">
            <mxPoint x="760" y="159.52" as="sourcePoint" />
            <mxPoint x="780" y="159.52" as="targetPoint" />
          </mxGeometry>
        </mxCell>
        <mxCell id="ZxSBbp-IphkqUdOfR0Vp-122" value="" style="endArrow=none;html=1;rounded=0;" parent="1" edge="1">
          <mxGeometry width="50" height="50" relative="1" as="geometry">
            <mxPoint x="420" y="220" as="sourcePoint" />
            <mxPoint x="420" y="180" as="targetPoint" />
          </mxGeometry>
        </mxCell>
        <mxCell id="ZxSBbp-IphkqUdOfR0Vp-123" value="" style="endArrow=none;html=1;rounded=0;" parent="1" edge="1">
          <mxGeometry width="50" height="50" relative="1" as="geometry">
            <mxPoint x="500" y="220" as="sourcePoint" />
            <mxPoint x="500" y="180" as="targetPoint" />
          </mxGeometry>
        </mxCell>
        <mxCell id="ZxSBbp-IphkqUdOfR0Vp-124" value="" style="endArrow=none;html=1;rounded=0;" parent="1" edge="1">
          <mxGeometry width="50" height="50" relative="1" as="geometry">
            <mxPoint x="420" y="180" as="sourcePoint" />
            <mxPoint x="500" y="180" as="targetPoint" />
          </mxGeometry>
        </mxCell>
        <mxCell id="ZxSBbp-IphkqUdOfR0Vp-135" value="" style="endArrow=none;html=1;rounded=0;" parent="1" edge="1">
          <mxGeometry width="50" height="50" relative="1" as="geometry">
            <mxPoint x="500" y="220" as="sourcePoint" />
            <mxPoint x="600" y="220" as="targetPoint" />
          </mxGeometry>
        </mxCell>
        <mxCell id="ZxSBbp-IphkqUdOfR0Vp-138" value="" style="endArrow=none;html=1;rounded=0;" parent="1" edge="1">
          <mxGeometry width="50" height="50" relative="1" as="geometry">
            <mxPoint x="640" y="180" as="sourcePoint" />
            <mxPoint x="720" y="180" as="targetPoint" />
          </mxGeometry>
        </mxCell>
        <mxCell id="ZxSBbp-IphkqUdOfR0Vp-153" value="Clock" style="text;html=1;align=center;verticalAlign=middle;whiteSpace=wrap;rounded=0;" parent="1" vertex="1">
          <mxGeometry x="60" y="120" width="40" height="40" as="geometry" />
        </mxCell>
        <mxCell id="ZxSBbp-IphkqUdOfR0Vp-173" value="" style="endArrow=none;html=1;rounded=0;" parent="1" edge="1">
          <mxGeometry width="50" height="50" relative="1" as="geometry">
            <mxPoint x="100" y="159.52" as="sourcePoint" />
            <mxPoint x="140" y="159.52" as="targetPoint" />
          </mxGeometry>
        </mxCell>
        <mxCell id="ZxSBbp-IphkqUdOfR0Vp-174" value="" style="endArrow=none;html=1;rounded=0;" parent="1" edge="1">
          <mxGeometry width="50" height="50" relative="1" as="geometry">
            <mxPoint x="100" y="220" as="sourcePoint" />
            <mxPoint x="140" y="220" as="targetPoint" />
          </mxGeometry>
        </mxCell>
        <mxCell id="ZxSBbp-IphkqUdOfR0Vp-213" value="ON" style="text;html=1;align=center;verticalAlign=middle;whiteSpace=wrap;rounded=0;" parent="1" vertex="1">
          <mxGeometry x="100" y="110" width="40" height="20" as="geometry" />
        </mxCell>
        <mxCell id="ZxSBbp-IphkqUdOfR0Vp-214" value="OFF" style="text;html=1;align=center;verticalAlign=middle;whiteSpace=wrap;rounded=0;" parent="1" vertex="1">
          <mxGeometry x="100" y="140" width="40" height="20" as="geometry" />
        </mxCell>
        <mxCell id="ZxSBbp-IphkqUdOfR0Vp-220" value="" style="endArrow=none;html=1;rounded=0;" parent="1" edge="1">
          <mxGeometry width="50" height="50" relative="1" as="geometry">
            <mxPoint x="600" y="220" as="sourcePoint" />
            <mxPoint x="600" y="180" as="targetPoint" />
          </mxGeometry>
        </mxCell>
        <mxCell id="ZxSBbp-IphkqUdOfR0Vp-221" value="" style="endArrow=none;html=1;rounded=0;" parent="1" edge="1">
          <mxGeometry width="50" height="50" relative="1" as="geometry">
            <mxPoint x="619.86" y="220" as="sourcePoint" />
            <mxPoint x="619.86" y="180" as="targetPoint" />
          </mxGeometry>
        </mxCell>
        <mxCell id="ZxSBbp-IphkqUdOfR0Vp-222" value="" style="endArrow=none;html=1;rounded=0;" parent="1" edge="1">
          <mxGeometry width="50" height="50" relative="1" as="geometry">
            <mxPoint x="600" y="180" as="sourcePoint" />
            <mxPoint x="620" y="180" as="targetPoint" />
          </mxGeometry>
        </mxCell>
        <mxCell id="ZxSBbp-IphkqUdOfR0Vp-223" value="" style="endArrow=none;html=1;rounded=0;" parent="1" edge="1">
          <mxGeometry width="50" height="50" relative="1" as="geometry">
            <mxPoint x="620" y="220" as="sourcePoint" />
            <mxPoint x="640" y="220" as="targetPoint" />
          </mxGeometry>
        </mxCell>
        <mxCell id="ZxSBbp-IphkqUdOfR0Vp-224" value="" style="endArrow=none;html=1;rounded=0;" parent="1" edge="1">
          <mxGeometry width="50" height="50" relative="1" as="geometry">
            <mxPoint x="640" y="220" as="sourcePoint" />
            <mxPoint x="640" y="180" as="targetPoint" />
          </mxGeometry>
        </mxCell>
        <mxCell id="ZxSBbp-IphkqUdOfR0Vp-228" value="" style="endArrow=none;html=1;rounded=0;" parent="1" edge="1">
          <mxGeometry width="50" height="50" relative="1" as="geometry">
            <mxPoint x="720" y="220" as="sourcePoint" />
            <mxPoint x="720" y="180" as="targetPoint" />
          </mxGeometry>
        </mxCell>
        <mxCell id="ZxSBbp-IphkqUdOfR0Vp-229" value="" style="endArrow=none;html=1;rounded=0;" parent="1" edge="1">
          <mxGeometry width="50" height="50" relative="1" as="geometry">
            <mxPoint x="720.14" y="220" as="sourcePoint" />
            <mxPoint x="740.14" y="220" as="targetPoint" />
          </mxGeometry>
        </mxCell>
        <mxCell id="ZxSBbp-IphkqUdOfR0Vp-230" value="" style="endArrow=none;html=1;rounded=0;" parent="1" edge="1">
          <mxGeometry width="50" height="50" relative="1" as="geometry">
            <mxPoint x="740.14" y="220" as="sourcePoint" />
            <mxPoint x="740.14" y="180" as="targetPoint" />
          </mxGeometry>
        </mxCell>
        <mxCell id="ZxSBbp-IphkqUdOfR0Vp-231" value="" style="endArrow=none;html=1;rounded=0;" parent="1" edge="1">
          <mxGeometry width="50" height="50" relative="1" as="geometry">
            <mxPoint x="760" y="220" as="sourcePoint" />
            <mxPoint x="760" y="180" as="targetPoint" />
          </mxGeometry>
        </mxCell>
        <mxCell id="ZxSBbp-IphkqUdOfR0Vp-232" value="" style="endArrow=none;html=1;rounded=0;" parent="1" edge="1">
          <mxGeometry width="50" height="50" relative="1" as="geometry">
            <mxPoint x="740.14" y="180" as="sourcePoint" />
            <mxPoint x="760.14" y="180" as="targetPoint" />
          </mxGeometry>
        </mxCell>
        <mxCell id="ZxSBbp-IphkqUdOfR0Vp-233" value="" style="endArrow=none;html=1;rounded=0;" parent="1" edge="1">
          <mxGeometry width="50" height="50" relative="1" as="geometry">
            <mxPoint x="760.14" y="220" as="sourcePoint" />
            <mxPoint x="780.14" y="220" as="targetPoint" />
          </mxGeometry>
        </mxCell>
        <mxCell id="ZxSBbp-IphkqUdOfR0Vp-234" value="Data" style="text;html=1;align=center;verticalAlign=middle;whiteSpace=wrap;rounded=0;" parent="1" vertex="1">
          <mxGeometry x="60" y="180" width="40" height="40" as="geometry" />
        </mxCell>
        <mxCell id="ZxSBbp-IphkqUdOfR0Vp-235" value="ON" style="text;html=1;align=center;verticalAlign=middle;whiteSpace=wrap;rounded=0;" parent="1" vertex="1">
          <mxGeometry x="100" y="170" width="40" height="20" as="geometry" />
        </mxCell>
        <mxCell id="ZxSBbp-IphkqUdOfR0Vp-236" value="OFF" style="text;html=1;align=center;verticalAlign=middle;whiteSpace=wrap;rounded=0;" parent="1" vertex="1">
          <mxGeometry x="100" y="200" width="40" height="20" as="geometry" />
        </mxCell>
        <mxCell id="ZxSBbp-IphkqUdOfR0Vp-237" value="" style="endArrow=none;html=1;rounded=0;" parent="1" edge="1">
          <mxGeometry width="50" height="50" relative="1" as="geometry">
            <mxPoint x="100" y="300" as="sourcePoint" />
            <mxPoint x="140" y="300" as="targetPoint" />
          </mxGeometry>
        </mxCell>
        <mxCell id="ZxSBbp-IphkqUdOfR0Vp-238" value="" style="endArrow=none;html=1;rounded=0;" parent="1" edge="1">
          <mxGeometry width="50" height="50" relative="1" as="geometry">
            <mxPoint x="140" y="300" as="sourcePoint" />
            <mxPoint x="140" y="260" as="targetPoint" />
          </mxGeometry>
        </mxCell>
        <mxCell id="ZxSBbp-IphkqUdOfR0Vp-239" value="" style="endArrow=none;html=1;rounded=0;" parent="1" edge="1">
          <mxGeometry width="50" height="50" relative="1" as="geometry">
            <mxPoint x="180" y="300" as="sourcePoint" />
            <mxPoint x="180" y="260" as="targetPoint" />
          </mxGeometry>
        </mxCell>
        <mxCell id="ZxSBbp-IphkqUdOfR0Vp-240" value="" style="endArrow=none;html=1;rounded=0;" parent="1" edge="1">
          <mxGeometry width="50" height="50" relative="1" as="geometry">
            <mxPoint x="140" y="260" as="sourcePoint" />
            <mxPoint x="180" y="260" as="targetPoint" />
          </mxGeometry>
        </mxCell>
        <mxCell id="ZxSBbp-IphkqUdOfR0Vp-243" value="" style="endArrow=none;html=1;rounded=0;" parent="1" edge="1">
          <mxGeometry width="50" height="50" relative="1" as="geometry">
            <mxPoint x="380" y="300" as="sourcePoint" />
            <mxPoint x="380" y="260" as="targetPoint" />
          </mxGeometry>
        </mxCell>
        <mxCell id="ZxSBbp-IphkqUdOfR0Vp-245" value="" style="endArrow=none;html=1;rounded=0;" parent="1" edge="1">
          <mxGeometry width="50" height="50" relative="1" as="geometry">
            <mxPoint x="379.8" y="300" as="sourcePoint" />
            <mxPoint x="419.8" y="300" as="targetPoint" />
          </mxGeometry>
        </mxCell>
        <mxCell id="ZxSBbp-IphkqUdOfR0Vp-246" value="" style="endArrow=none;html=1;rounded=0;" parent="1" edge="1">
          <mxGeometry width="50" height="50" relative="1" as="geometry">
            <mxPoint x="419.8" y="300" as="sourcePoint" />
            <mxPoint x="419.8" y="260" as="targetPoint" />
          </mxGeometry>
        </mxCell>
        <mxCell id="ZxSBbp-IphkqUdOfR0Vp-247" value="" style="endArrow=none;html=1;rounded=0;" parent="1" edge="1">
          <mxGeometry width="50" height="50" relative="1" as="geometry">
            <mxPoint x="499.8" y="300" as="sourcePoint" />
            <mxPoint x="499.8" y="260" as="targetPoint" />
          </mxGeometry>
        </mxCell>
        <mxCell id="ZxSBbp-IphkqUdOfR0Vp-248" value="" style="endArrow=none;html=1;rounded=0;" parent="1" edge="1">
          <mxGeometry width="50" height="50" relative="1" as="geometry">
            <mxPoint x="419.8" y="260" as="sourcePoint" />
            <mxPoint x="499.8" y="260" as="targetPoint" />
          </mxGeometry>
        </mxCell>
        <mxCell id="ZxSBbp-IphkqUdOfR0Vp-249" value="" style="endArrow=none;html=1;rounded=0;" parent="1" edge="1">
          <mxGeometry width="50" height="50" relative="1" as="geometry">
            <mxPoint x="500" y="300" as="sourcePoint" />
            <mxPoint x="660" y="300" as="targetPoint" />
          </mxGeometry>
        </mxCell>
        <mxCell id="ZxSBbp-IphkqUdOfR0Vp-251" value="" style="endArrow=none;html=1;rounded=0;" parent="1" edge="1">
          <mxGeometry width="50" height="50" relative="1" as="geometry">
            <mxPoint x="759.86" y="300" as="sourcePoint" />
            <mxPoint x="759.86" y="260" as="targetPoint" />
          </mxGeometry>
        </mxCell>
        <mxCell id="ZxSBbp-IphkqUdOfR0Vp-254" value="" style="endArrow=none;html=1;rounded=0;" parent="1" edge="1">
          <mxGeometry width="50" height="50" relative="1" as="geometry">
            <mxPoint x="180" y="300" as="sourcePoint" />
            <mxPoint x="220" y="300" as="targetPoint" />
          </mxGeometry>
        </mxCell>
        <mxCell id="ZxSBbp-IphkqUdOfR0Vp-255" value="" style="endArrow=none;html=1;rounded=0;" parent="1" edge="1">
          <mxGeometry width="50" height="50" relative="1" as="geometry">
            <mxPoint x="220" y="300" as="sourcePoint" />
            <mxPoint x="220" y="260" as="targetPoint" />
          </mxGeometry>
        </mxCell>
        <mxCell id="ZxSBbp-IphkqUdOfR0Vp-256" value="" style="endArrow=none;html=1;rounded=0;" parent="1" edge="1">
          <mxGeometry width="50" height="50" relative="1" as="geometry">
            <mxPoint x="260" y="300" as="sourcePoint" />
            <mxPoint x="260" y="260" as="targetPoint" />
          </mxGeometry>
        </mxCell>
        <mxCell id="ZxSBbp-IphkqUdOfR0Vp-257" value="" style="endArrow=none;html=1;rounded=0;" parent="1" edge="1">
          <mxGeometry width="50" height="50" relative="1" as="geometry">
            <mxPoint x="220" y="260" as="sourcePoint" />
            <mxPoint x="260" y="260" as="targetPoint" />
          </mxGeometry>
        </mxCell>
        <mxCell id="ZxSBbp-IphkqUdOfR0Vp-258" value="" style="endArrow=none;html=1;rounded=0;" parent="1" edge="1">
          <mxGeometry width="50" height="50" relative="1" as="geometry">
            <mxPoint x="260" y="300" as="sourcePoint" />
            <mxPoint x="300" y="300" as="targetPoint" />
          </mxGeometry>
        </mxCell>
        <mxCell id="ZxSBbp-IphkqUdOfR0Vp-259" value="" style="endArrow=none;html=1;rounded=0;" parent="1" edge="1">
          <mxGeometry width="50" height="50" relative="1" as="geometry">
            <mxPoint x="300" y="300" as="sourcePoint" />
            <mxPoint x="300" y="260" as="targetPoint" />
          </mxGeometry>
        </mxCell>
        <mxCell id="ZxSBbp-IphkqUdOfR0Vp-261" value="" style="endArrow=none;html=1;rounded=0;" parent="1" edge="1">
          <mxGeometry width="50" height="50" relative="1" as="geometry">
            <mxPoint x="300" y="260" as="sourcePoint" />
            <mxPoint x="380" y="260" as="targetPoint" />
          </mxGeometry>
        </mxCell>
        <mxCell id="ZxSBbp-IphkqUdOfR0Vp-262" value="" style="endArrow=none;html=1;rounded=0;" parent="1" edge="1">
          <mxGeometry width="50" height="50" relative="1" as="geometry">
            <mxPoint x="660" y="300" as="sourcePoint" />
            <mxPoint x="660" y="260" as="targetPoint" />
          </mxGeometry>
        </mxCell>
        <mxCell id="ZxSBbp-IphkqUdOfR0Vp-264" value="" style="endArrow=none;html=1;rounded=0;" parent="1" edge="1">
          <mxGeometry width="50" height="50" relative="1" as="geometry">
            <mxPoint x="660" y="260" as="sourcePoint" />
            <mxPoint x="760" y="260" as="targetPoint" />
          </mxGeometry>
        </mxCell>
        <mxCell id="ZxSBbp-IphkqUdOfR0Vp-265" value="" style="endArrow=none;dashed=1;html=1;dashPattern=1 3;strokeWidth=2;rounded=0;" parent="1" edge="1">
          <mxGeometry width="50" height="50" relative="1" as="geometry">
            <mxPoint x="140" y="570" as="sourcePoint" />
            <mxPoint x="140" y="100" as="targetPoint" />
          </mxGeometry>
        </mxCell>
        <mxCell id="ZxSBbp-IphkqUdOfR0Vp-266" value="" style="endArrow=none;dashed=1;html=1;dashPattern=1 3;strokeWidth=2;rounded=0;" parent="1" edge="1">
          <mxGeometry width="50" height="50" relative="1" as="geometry">
            <mxPoint x="180" y="570" as="sourcePoint" />
            <mxPoint x="180" y="100" as="targetPoint" />
          </mxGeometry>
        </mxCell>
        <mxCell id="ZxSBbp-IphkqUdOfR0Vp-267" value="" style="endArrow=none;dashed=1;html=1;dashPattern=1 3;strokeWidth=2;rounded=0;" parent="1" edge="1">
          <mxGeometry width="50" height="50" relative="1" as="geometry">
            <mxPoint x="220" y="570" as="sourcePoint" />
            <mxPoint x="220" y="98.93332926432292" as="targetPoint" />
          </mxGeometry>
        </mxCell>
        <mxCell id="ZxSBbp-IphkqUdOfR0Vp-268" value="" style="endArrow=none;dashed=1;html=1;dashPattern=1 3;strokeWidth=2;rounded=0;" parent="1" edge="1">
          <mxGeometry width="50" height="50" relative="1" as="geometry">
            <mxPoint x="260" y="570" as="sourcePoint" />
            <mxPoint x="260" y="100" as="targetPoint" />
          </mxGeometry>
        </mxCell>
        <mxCell id="ZxSBbp-IphkqUdOfR0Vp-269" value="" style="endArrow=none;dashed=1;html=1;dashPattern=1 3;strokeWidth=2;rounded=0;" parent="1" edge="1">
          <mxGeometry width="50" height="50" relative="1" as="geometry">
            <mxPoint x="300" y="570" as="sourcePoint" />
            <mxPoint x="300" y="100" as="targetPoint" />
          </mxGeometry>
        </mxCell>
        <mxCell id="ZxSBbp-IphkqUdOfR0Vp-270" value="" style="endArrow=none;dashed=1;html=1;dashPattern=1 3;strokeWidth=2;rounded=0;" parent="1" edge="1">
          <mxGeometry width="50" height="50" relative="1" as="geometry">
            <mxPoint x="340" y="570" as="sourcePoint" />
            <mxPoint x="340" y="100" as="targetPoint" />
          </mxGeometry>
        </mxCell>
        <mxCell id="ZxSBbp-IphkqUdOfR0Vp-271" value="" style="endArrow=none;dashed=1;html=1;dashPattern=1 3;strokeWidth=2;rounded=0;" parent="1" edge="1">
          <mxGeometry width="50" height="50" relative="1" as="geometry">
            <mxPoint x="380" y="570" as="sourcePoint" />
            <mxPoint x="380" y="100" as="targetPoint" />
          </mxGeometry>
        </mxCell>
        <mxCell id="ZxSBbp-IphkqUdOfR0Vp-272" value="" style="endArrow=none;dashed=1;html=1;dashPattern=1 3;strokeWidth=2;rounded=0;" parent="1" edge="1">
          <mxGeometry width="50" height="50" relative="1" as="geometry">
            <mxPoint x="420" y="570" as="sourcePoint" />
            <mxPoint x="420" y="100" as="targetPoint" />
          </mxGeometry>
        </mxCell>
        <mxCell id="ZxSBbp-IphkqUdOfR0Vp-273" value="" style="endArrow=none;dashed=1;html=1;dashPattern=1 3;strokeWidth=2;rounded=0;" parent="1" edge="1">
          <mxGeometry width="50" height="50" relative="1" as="geometry">
            <mxPoint x="460" y="570" as="sourcePoint" />
            <mxPoint x="460" y="100" as="targetPoint" />
          </mxGeometry>
        </mxCell>
        <mxCell id="ZxSBbp-IphkqUdOfR0Vp-274" value="" style="endArrow=none;dashed=1;html=1;dashPattern=1 3;strokeWidth=2;rounded=0;" parent="1" edge="1">
          <mxGeometry width="50" height="50" relative="1" as="geometry">
            <mxPoint x="500" y="570" as="sourcePoint" />
            <mxPoint x="500" y="100" as="targetPoint" />
          </mxGeometry>
        </mxCell>
        <mxCell id="ZxSBbp-IphkqUdOfR0Vp-275" value="" style="endArrow=none;dashed=1;html=1;dashPattern=1 3;strokeWidth=2;rounded=0;" parent="1" edge="1">
          <mxGeometry width="50" height="50" relative="1" as="geometry">
            <mxPoint x="540" y="570" as="sourcePoint" />
            <mxPoint x="540" y="100" as="targetPoint" />
          </mxGeometry>
        </mxCell>
        <mxCell id="ZxSBbp-IphkqUdOfR0Vp-276" value="" style="endArrow=none;dashed=1;html=1;dashPattern=1 3;strokeWidth=2;rounded=0;" parent="1" edge="1">
          <mxGeometry width="50" height="50" relative="1" as="geometry">
            <mxPoint x="580" y="570" as="sourcePoint" />
            <mxPoint x="580" y="100" as="targetPoint" />
          </mxGeometry>
        </mxCell>
        <mxCell id="ZxSBbp-IphkqUdOfR0Vp-277" value="" style="endArrow=none;dashed=1;html=1;dashPattern=1 3;strokeWidth=2;rounded=0;" parent="1" edge="1">
          <mxGeometry width="50" height="50" relative="1" as="geometry">
            <mxPoint x="620" y="570" as="sourcePoint" />
            <mxPoint x="620" y="100" as="targetPoint" />
          </mxGeometry>
        </mxCell>
        <mxCell id="ZxSBbp-IphkqUdOfR0Vp-278" value="" style="endArrow=none;dashed=1;html=1;dashPattern=1 3;strokeWidth=2;rounded=0;" parent="1" edge="1">
          <mxGeometry width="50" height="50" relative="1" as="geometry">
            <mxPoint x="660" y="570" as="sourcePoint" />
            <mxPoint x="660" y="100" as="targetPoint" />
          </mxGeometry>
        </mxCell>
        <mxCell id="ZxSBbp-IphkqUdOfR0Vp-279" value="" style="endArrow=none;dashed=1;html=1;dashPattern=1 3;strokeWidth=2;rounded=0;" parent="1" edge="1">
          <mxGeometry width="50" height="50" relative="1" as="geometry">
            <mxPoint x="700" y="570" as="sourcePoint" />
            <mxPoint x="700" y="100" as="targetPoint" />
          </mxGeometry>
        </mxCell>
        <mxCell id="ZxSBbp-IphkqUdOfR0Vp-280" value="" style="endArrow=none;dashed=1;html=1;dashPattern=1 3;strokeWidth=2;rounded=0;" parent="1" edge="1">
          <mxGeometry width="50" height="50" relative="1" as="geometry">
            <mxPoint x="740" y="570" as="sourcePoint" />
            <mxPoint x="740" y="100" as="targetPoint" />
          </mxGeometry>
        </mxCell>
        <mxCell id="ZxSBbp-IphkqUdOfR0Vp-281" value="" style="endArrow=none;html=1;rounded=0;" parent="1" edge="1">
          <mxGeometry width="50" height="50" relative="1" as="geometry">
            <mxPoint x="100" y="360" as="sourcePoint" />
            <mxPoint x="180" y="360" as="targetPoint" />
          </mxGeometry>
        </mxCell>
        <mxCell id="ZxSBbp-IphkqUdOfR0Vp-282" value="" style="endArrow=none;html=1;rounded=0;" parent="1" edge="1">
          <mxGeometry width="50" height="50" relative="1" as="geometry">
            <mxPoint x="180" y="360" as="sourcePoint" />
            <mxPoint x="180" y="320" as="targetPoint" />
          </mxGeometry>
        </mxCell>
        <mxCell id="ZxSBbp-IphkqUdOfR0Vp-283" value="" style="endArrow=none;html=1;rounded=0;" parent="1" edge="1">
          <mxGeometry width="50" height="50" relative="1" as="geometry">
            <mxPoint x="220" y="360" as="sourcePoint" />
            <mxPoint x="220" y="320" as="targetPoint" />
          </mxGeometry>
        </mxCell>
        <mxCell id="ZxSBbp-IphkqUdOfR0Vp-284" value="" style="endArrow=none;html=1;rounded=0;" parent="1" edge="1">
          <mxGeometry width="50" height="50" relative="1" as="geometry">
            <mxPoint x="180" y="320" as="sourcePoint" />
            <mxPoint x="220" y="320" as="targetPoint" />
          </mxGeometry>
        </mxCell>
        <mxCell id="ZxSBbp-IphkqUdOfR0Vp-285" value="" style="endArrow=none;html=1;rounded=0;" parent="1" edge="1">
          <mxGeometry width="50" height="50" relative="1" as="geometry">
            <mxPoint x="420" y="360" as="sourcePoint" />
            <mxPoint x="420" y="320" as="targetPoint" />
          </mxGeometry>
        </mxCell>
        <mxCell id="ZxSBbp-IphkqUdOfR0Vp-286" value="" style="endArrow=none;html=1;rounded=0;" parent="1" edge="1">
          <mxGeometry width="50" height="50" relative="1" as="geometry">
            <mxPoint x="419.8" y="360" as="sourcePoint" />
            <mxPoint x="459.8" y="360" as="targetPoint" />
          </mxGeometry>
        </mxCell>
        <mxCell id="ZxSBbp-IphkqUdOfR0Vp-287" value="" style="endArrow=none;html=1;rounded=0;" parent="1" edge="1">
          <mxGeometry width="50" height="50" relative="1" as="geometry">
            <mxPoint x="459.8" y="360" as="sourcePoint" />
            <mxPoint x="459.8" y="320" as="targetPoint" />
          </mxGeometry>
        </mxCell>
        <mxCell id="ZxSBbp-IphkqUdOfR0Vp-288" value="" style="endArrow=none;html=1;rounded=0;" parent="1" edge="1">
          <mxGeometry width="50" height="50" relative="1" as="geometry">
            <mxPoint x="539.8" y="360" as="sourcePoint" />
            <mxPoint x="539.8" y="320" as="targetPoint" />
          </mxGeometry>
        </mxCell>
        <mxCell id="ZxSBbp-IphkqUdOfR0Vp-289" value="" style="endArrow=none;html=1;rounded=0;" parent="1" edge="1">
          <mxGeometry width="50" height="50" relative="1" as="geometry">
            <mxPoint x="459.8" y="320" as="sourcePoint" />
            <mxPoint x="539.8" y="320" as="targetPoint" />
          </mxGeometry>
        </mxCell>
        <mxCell id="ZxSBbp-IphkqUdOfR0Vp-290" value="" style="endArrow=none;html=1;rounded=0;" parent="1" edge="1">
          <mxGeometry width="50" height="50" relative="1" as="geometry">
            <mxPoint x="540" y="360" as="sourcePoint" />
            <mxPoint x="700" y="360" as="targetPoint" />
          </mxGeometry>
        </mxCell>
        <mxCell id="ZxSBbp-IphkqUdOfR0Vp-293" value="" style="endArrow=none;html=1;rounded=0;" parent="1" edge="1">
          <mxGeometry width="50" height="50" relative="1" as="geometry">
            <mxPoint x="220" y="360" as="sourcePoint" />
            <mxPoint x="260" y="360" as="targetPoint" />
          </mxGeometry>
        </mxCell>
        <mxCell id="ZxSBbp-IphkqUdOfR0Vp-294" value="" style="endArrow=none;html=1;rounded=0;" parent="1" edge="1">
          <mxGeometry width="50" height="50" relative="1" as="geometry">
            <mxPoint x="260" y="360" as="sourcePoint" />
            <mxPoint x="260" y="320" as="targetPoint" />
          </mxGeometry>
        </mxCell>
        <mxCell id="ZxSBbp-IphkqUdOfR0Vp-295" value="" style="endArrow=none;html=1;rounded=0;" parent="1" edge="1">
          <mxGeometry width="50" height="50" relative="1" as="geometry">
            <mxPoint x="300" y="360" as="sourcePoint" />
            <mxPoint x="300" y="320" as="targetPoint" />
          </mxGeometry>
        </mxCell>
        <mxCell id="ZxSBbp-IphkqUdOfR0Vp-296" value="" style="endArrow=none;html=1;rounded=0;" parent="1" edge="1">
          <mxGeometry width="50" height="50" relative="1" as="geometry">
            <mxPoint x="260" y="320" as="sourcePoint" />
            <mxPoint x="300" y="320" as="targetPoint" />
          </mxGeometry>
        </mxCell>
        <mxCell id="ZxSBbp-IphkqUdOfR0Vp-297" value="" style="endArrow=none;html=1;rounded=0;" parent="1" edge="1">
          <mxGeometry width="50" height="50" relative="1" as="geometry">
            <mxPoint x="300" y="360" as="sourcePoint" />
            <mxPoint x="340" y="360" as="targetPoint" />
          </mxGeometry>
        </mxCell>
        <mxCell id="ZxSBbp-IphkqUdOfR0Vp-298" value="" style="endArrow=none;html=1;rounded=0;" parent="1" edge="1">
          <mxGeometry width="50" height="50" relative="1" as="geometry">
            <mxPoint x="340" y="360" as="sourcePoint" />
            <mxPoint x="340" y="320" as="targetPoint" />
          </mxGeometry>
        </mxCell>
        <mxCell id="ZxSBbp-IphkqUdOfR0Vp-299" value="" style="endArrow=none;html=1;rounded=0;" parent="1" edge="1">
          <mxGeometry width="50" height="50" relative="1" as="geometry">
            <mxPoint x="340" y="320" as="sourcePoint" />
            <mxPoint x="420" y="320" as="targetPoint" />
          </mxGeometry>
        </mxCell>
        <mxCell id="ZxSBbp-IphkqUdOfR0Vp-300" value="" style="endArrow=none;html=1;rounded=0;" parent="1" edge="1">
          <mxGeometry width="50" height="50" relative="1" as="geometry">
            <mxPoint x="700" y="360" as="sourcePoint" />
            <mxPoint x="700" y="320" as="targetPoint" />
          </mxGeometry>
        </mxCell>
        <mxCell id="ZxSBbp-IphkqUdOfR0Vp-301" value="" style="endArrow=none;html=1;rounded=0;" parent="1" edge="1">
          <mxGeometry width="50" height="50" relative="1" as="geometry">
            <mxPoint x="700" y="320" as="sourcePoint" />
            <mxPoint x="780" y="320" as="targetPoint" />
          </mxGeometry>
        </mxCell>
        <mxCell id="ZxSBbp-IphkqUdOfR0Vp-302" value="" style="endArrow=none;html=1;rounded=0;" parent="1" edge="1">
          <mxGeometry width="50" height="50" relative="1" as="geometry">
            <mxPoint x="100" y="420" as="sourcePoint" />
            <mxPoint x="220" y="420" as="targetPoint" />
          </mxGeometry>
        </mxCell>
        <mxCell id="ZxSBbp-IphkqUdOfR0Vp-303" value="" style="endArrow=none;html=1;rounded=0;" parent="1" edge="1">
          <mxGeometry width="50" height="50" relative="1" as="geometry">
            <mxPoint x="220" y="420" as="sourcePoint" />
            <mxPoint x="220" y="380" as="targetPoint" />
          </mxGeometry>
        </mxCell>
        <mxCell id="ZxSBbp-IphkqUdOfR0Vp-304" value="" style="endArrow=none;html=1;rounded=0;" parent="1" edge="1">
          <mxGeometry width="50" height="50" relative="1" as="geometry">
            <mxPoint x="260" y="420" as="sourcePoint" />
            <mxPoint x="260" y="380" as="targetPoint" />
          </mxGeometry>
        </mxCell>
        <mxCell id="ZxSBbp-IphkqUdOfR0Vp-305" value="" style="endArrow=none;html=1;rounded=0;" parent="1" edge="1">
          <mxGeometry width="50" height="50" relative="1" as="geometry">
            <mxPoint x="220" y="380" as="sourcePoint" />
            <mxPoint x="260" y="380" as="targetPoint" />
          </mxGeometry>
        </mxCell>
        <mxCell id="ZxSBbp-IphkqUdOfR0Vp-306" value="" style="endArrow=none;html=1;rounded=0;" parent="1" edge="1">
          <mxGeometry width="50" height="50" relative="1" as="geometry">
            <mxPoint x="460" y="420" as="sourcePoint" />
            <mxPoint x="460" y="380" as="targetPoint" />
          </mxGeometry>
        </mxCell>
        <mxCell id="ZxSBbp-IphkqUdOfR0Vp-307" value="" style="endArrow=none;html=1;rounded=0;" parent="1" edge="1">
          <mxGeometry width="50" height="50" relative="1" as="geometry">
            <mxPoint x="459.8" y="420" as="sourcePoint" />
            <mxPoint x="499.8" y="420" as="targetPoint" />
          </mxGeometry>
        </mxCell>
        <mxCell id="ZxSBbp-IphkqUdOfR0Vp-308" value="" style="endArrow=none;html=1;rounded=0;" parent="1" edge="1">
          <mxGeometry width="50" height="50" relative="1" as="geometry">
            <mxPoint x="499.8" y="420" as="sourcePoint" />
            <mxPoint x="499.8" y="380" as="targetPoint" />
          </mxGeometry>
        </mxCell>
        <mxCell id="ZxSBbp-IphkqUdOfR0Vp-309" value="" style="endArrow=none;html=1;rounded=0;" parent="1" edge="1">
          <mxGeometry width="50" height="50" relative="1" as="geometry">
            <mxPoint x="579.8" y="420" as="sourcePoint" />
            <mxPoint x="579.8" y="380" as="targetPoint" />
          </mxGeometry>
        </mxCell>
        <mxCell id="ZxSBbp-IphkqUdOfR0Vp-310" value="" style="endArrow=none;html=1;rounded=0;" parent="1" edge="1">
          <mxGeometry width="50" height="50" relative="1" as="geometry">
            <mxPoint x="499.8" y="380" as="sourcePoint" />
            <mxPoint x="579.8" y="380" as="targetPoint" />
          </mxGeometry>
        </mxCell>
        <mxCell id="ZxSBbp-IphkqUdOfR0Vp-311" value="" style="endArrow=none;html=1;rounded=0;" parent="1" edge="1">
          <mxGeometry width="50" height="50" relative="1" as="geometry">
            <mxPoint x="580" y="420" as="sourcePoint" />
            <mxPoint x="740" y="420" as="targetPoint" />
          </mxGeometry>
        </mxCell>
        <mxCell id="ZxSBbp-IphkqUdOfR0Vp-314" value="" style="endArrow=none;html=1;rounded=0;" parent="1" edge="1">
          <mxGeometry width="50" height="50" relative="1" as="geometry">
            <mxPoint x="260" y="420" as="sourcePoint" />
            <mxPoint x="300" y="420" as="targetPoint" />
          </mxGeometry>
        </mxCell>
        <mxCell id="ZxSBbp-IphkqUdOfR0Vp-315" value="" style="endArrow=none;html=1;rounded=0;" parent="1" edge="1">
          <mxGeometry width="50" height="50" relative="1" as="geometry">
            <mxPoint x="300" y="420" as="sourcePoint" />
            <mxPoint x="300" y="380" as="targetPoint" />
          </mxGeometry>
        </mxCell>
        <mxCell id="ZxSBbp-IphkqUdOfR0Vp-316" value="" style="endArrow=none;html=1;rounded=0;" parent="1" edge="1">
          <mxGeometry width="50" height="50" relative="1" as="geometry">
            <mxPoint x="340" y="420" as="sourcePoint" />
            <mxPoint x="340" y="380" as="targetPoint" />
          </mxGeometry>
        </mxCell>
        <mxCell id="ZxSBbp-IphkqUdOfR0Vp-317" value="" style="endArrow=none;html=1;rounded=0;" parent="1" edge="1">
          <mxGeometry width="50" height="50" relative="1" as="geometry">
            <mxPoint x="300" y="380" as="sourcePoint" />
            <mxPoint x="340" y="380" as="targetPoint" />
          </mxGeometry>
        </mxCell>
        <mxCell id="ZxSBbp-IphkqUdOfR0Vp-318" value="" style="endArrow=none;html=1;rounded=0;" parent="1" edge="1">
          <mxGeometry width="50" height="50" relative="1" as="geometry">
            <mxPoint x="340" y="420" as="sourcePoint" />
            <mxPoint x="380" y="420" as="targetPoint" />
          </mxGeometry>
        </mxCell>
        <mxCell id="ZxSBbp-IphkqUdOfR0Vp-319" value="" style="endArrow=none;html=1;rounded=0;" parent="1" edge="1">
          <mxGeometry width="50" height="50" relative="1" as="geometry">
            <mxPoint x="380" y="420" as="sourcePoint" />
            <mxPoint x="380" y="380" as="targetPoint" />
          </mxGeometry>
        </mxCell>
        <mxCell id="ZxSBbp-IphkqUdOfR0Vp-320" value="" style="endArrow=none;html=1;rounded=0;" parent="1" edge="1">
          <mxGeometry width="50" height="50" relative="1" as="geometry">
            <mxPoint x="380" y="380" as="sourcePoint" />
            <mxPoint x="460" y="380" as="targetPoint" />
          </mxGeometry>
        </mxCell>
        <mxCell id="ZxSBbp-IphkqUdOfR0Vp-321" value="" style="endArrow=none;html=1;rounded=0;" parent="1" edge="1">
          <mxGeometry width="50" height="50" relative="1" as="geometry">
            <mxPoint x="740" y="420" as="sourcePoint" />
            <mxPoint x="740" y="380" as="targetPoint" />
          </mxGeometry>
        </mxCell>
        <mxCell id="ZxSBbp-IphkqUdOfR0Vp-322" value="" style="endArrow=none;html=1;rounded=0;" parent="1" edge="1">
          <mxGeometry width="50" height="50" relative="1" as="geometry">
            <mxPoint x="740" y="380" as="sourcePoint" />
            <mxPoint x="780" y="380" as="targetPoint" />
          </mxGeometry>
        </mxCell>
        <mxCell id="ZxSBbp-IphkqUdOfR0Vp-323" value="" style="endArrow=none;html=1;rounded=0;" parent="1" edge="1">
          <mxGeometry width="50" height="50" relative="1" as="geometry">
            <mxPoint x="100" y="480" as="sourcePoint" />
            <mxPoint x="260" y="480" as="targetPoint" />
          </mxGeometry>
        </mxCell>
        <mxCell id="ZxSBbp-IphkqUdOfR0Vp-324" value="" style="endArrow=none;html=1;rounded=0;" parent="1" edge="1">
          <mxGeometry width="50" height="50" relative="1" as="geometry">
            <mxPoint x="260" y="480" as="sourcePoint" />
            <mxPoint x="260" y="440" as="targetPoint" />
          </mxGeometry>
        </mxCell>
        <mxCell id="ZxSBbp-IphkqUdOfR0Vp-325" value="" style="endArrow=none;html=1;rounded=0;" parent="1" edge="1">
          <mxGeometry width="50" height="50" relative="1" as="geometry">
            <mxPoint x="300" y="480" as="sourcePoint" />
            <mxPoint x="300" y="440" as="targetPoint" />
          </mxGeometry>
        </mxCell>
        <mxCell id="ZxSBbp-IphkqUdOfR0Vp-326" value="" style="endArrow=none;html=1;rounded=0;" parent="1" edge="1">
          <mxGeometry width="50" height="50" relative="1" as="geometry">
            <mxPoint x="260" y="440" as="sourcePoint" />
            <mxPoint x="300" y="440" as="targetPoint" />
          </mxGeometry>
        </mxCell>
        <mxCell id="ZxSBbp-IphkqUdOfR0Vp-327" value="" style="endArrow=none;html=1;rounded=0;" parent="1" edge="1">
          <mxGeometry width="50" height="50" relative="1" as="geometry">
            <mxPoint x="500" y="480" as="sourcePoint" />
            <mxPoint x="500" y="440" as="targetPoint" />
          </mxGeometry>
        </mxCell>
        <mxCell id="ZxSBbp-IphkqUdOfR0Vp-328" value="" style="endArrow=none;html=1;rounded=0;" parent="1" edge="1">
          <mxGeometry width="50" height="50" relative="1" as="geometry">
            <mxPoint x="499.8" y="480" as="sourcePoint" />
            <mxPoint x="539.8" y="480" as="targetPoint" />
          </mxGeometry>
        </mxCell>
        <mxCell id="ZxSBbp-IphkqUdOfR0Vp-329" value="" style="endArrow=none;html=1;rounded=0;" parent="1" edge="1">
          <mxGeometry width="50" height="50" relative="1" as="geometry">
            <mxPoint x="539.8" y="480" as="sourcePoint" />
            <mxPoint x="539.8" y="440" as="targetPoint" />
          </mxGeometry>
        </mxCell>
        <mxCell id="ZxSBbp-IphkqUdOfR0Vp-330" value="" style="endArrow=none;html=1;rounded=0;" parent="1" edge="1">
          <mxGeometry width="50" height="50" relative="1" as="geometry">
            <mxPoint x="619.8" y="480" as="sourcePoint" />
            <mxPoint x="619.8" y="440" as="targetPoint" />
          </mxGeometry>
        </mxCell>
        <mxCell id="ZxSBbp-IphkqUdOfR0Vp-331" value="" style="endArrow=none;html=1;rounded=0;" parent="1" edge="1">
          <mxGeometry width="50" height="50" relative="1" as="geometry">
            <mxPoint x="539.8" y="440" as="sourcePoint" />
            <mxPoint x="619.8" y="440" as="targetPoint" />
          </mxGeometry>
        </mxCell>
        <mxCell id="ZxSBbp-IphkqUdOfR0Vp-332" value="" style="endArrow=none;html=1;rounded=0;" parent="1" edge="1">
          <mxGeometry width="50" height="50" relative="1" as="geometry">
            <mxPoint x="620" y="480" as="sourcePoint" />
            <mxPoint x="780" y="480" as="targetPoint" />
          </mxGeometry>
        </mxCell>
        <mxCell id="ZxSBbp-IphkqUdOfR0Vp-335" value="" style="endArrow=none;html=1;rounded=0;" parent="1" edge="1">
          <mxGeometry width="50" height="50" relative="1" as="geometry">
            <mxPoint x="300" y="480" as="sourcePoint" />
            <mxPoint x="340" y="480" as="targetPoint" />
          </mxGeometry>
        </mxCell>
        <mxCell id="ZxSBbp-IphkqUdOfR0Vp-336" value="" style="endArrow=none;html=1;rounded=0;" parent="1" edge="1">
          <mxGeometry width="50" height="50" relative="1" as="geometry">
            <mxPoint x="340" y="480" as="sourcePoint" />
            <mxPoint x="340" y="440" as="targetPoint" />
          </mxGeometry>
        </mxCell>
        <mxCell id="ZxSBbp-IphkqUdOfR0Vp-337" value="" style="endArrow=none;html=1;rounded=0;" parent="1" edge="1">
          <mxGeometry width="50" height="50" relative="1" as="geometry">
            <mxPoint x="380" y="480" as="sourcePoint" />
            <mxPoint x="380" y="440" as="targetPoint" />
          </mxGeometry>
        </mxCell>
        <mxCell id="ZxSBbp-IphkqUdOfR0Vp-338" value="" style="endArrow=none;html=1;rounded=0;" parent="1" edge="1">
          <mxGeometry width="50" height="50" relative="1" as="geometry">
            <mxPoint x="340" y="440" as="sourcePoint" />
            <mxPoint x="380" y="440" as="targetPoint" />
          </mxGeometry>
        </mxCell>
        <mxCell id="ZxSBbp-IphkqUdOfR0Vp-339" value="" style="endArrow=none;html=1;rounded=0;" parent="1" edge="1">
          <mxGeometry width="50" height="50" relative="1" as="geometry">
            <mxPoint x="380" y="480" as="sourcePoint" />
            <mxPoint x="420" y="480" as="targetPoint" />
          </mxGeometry>
        </mxCell>
        <mxCell id="ZxSBbp-IphkqUdOfR0Vp-340" value="" style="endArrow=none;html=1;rounded=0;" parent="1" edge="1">
          <mxGeometry width="50" height="50" relative="1" as="geometry">
            <mxPoint x="420" y="480" as="sourcePoint" />
            <mxPoint x="420" y="440" as="targetPoint" />
          </mxGeometry>
        </mxCell>
        <mxCell id="ZxSBbp-IphkqUdOfR0Vp-341" value="" style="endArrow=none;html=1;rounded=0;" parent="1" edge="1">
          <mxGeometry width="50" height="50" relative="1" as="geometry">
            <mxPoint x="420" y="440" as="sourcePoint" />
            <mxPoint x="500" y="440" as="targetPoint" />
          </mxGeometry>
        </mxCell>
        <mxCell id="ZxSBbp-IphkqUdOfR0Vp-344" value="" style="endArrow=none;html=1;rounded=0;" parent="1" edge="1">
          <mxGeometry width="50" height="50" relative="1" as="geometry">
            <mxPoint x="100" y="540" as="sourcePoint" />
            <mxPoint x="300" y="540" as="targetPoint" />
          </mxGeometry>
        </mxCell>
        <mxCell id="ZxSBbp-IphkqUdOfR0Vp-345" value="" style="endArrow=none;html=1;rounded=0;" parent="1" edge="1">
          <mxGeometry width="50" height="50" relative="1" as="geometry">
            <mxPoint x="300" y="540" as="sourcePoint" />
            <mxPoint x="300" y="500" as="targetPoint" />
          </mxGeometry>
        </mxCell>
        <mxCell id="ZxSBbp-IphkqUdOfR0Vp-346" value="" style="endArrow=none;html=1;rounded=0;" parent="1" edge="1">
          <mxGeometry width="50" height="50" relative="1" as="geometry">
            <mxPoint x="340" y="540" as="sourcePoint" />
            <mxPoint x="340" y="500" as="targetPoint" />
          </mxGeometry>
        </mxCell>
        <mxCell id="ZxSBbp-IphkqUdOfR0Vp-347" value="" style="endArrow=none;html=1;rounded=0;" parent="1" edge="1">
          <mxGeometry width="50" height="50" relative="1" as="geometry">
            <mxPoint x="300" y="500" as="sourcePoint" />
            <mxPoint x="340" y="500" as="targetPoint" />
          </mxGeometry>
        </mxCell>
        <mxCell id="ZxSBbp-IphkqUdOfR0Vp-348" value="" style="endArrow=none;html=1;rounded=0;" parent="1" edge="1">
          <mxGeometry width="50" height="50" relative="1" as="geometry">
            <mxPoint x="540" y="540" as="sourcePoint" />
            <mxPoint x="540" y="500" as="targetPoint" />
          </mxGeometry>
        </mxCell>
        <mxCell id="ZxSBbp-IphkqUdOfR0Vp-349" value="" style="endArrow=none;html=1;rounded=0;" parent="1" edge="1">
          <mxGeometry width="50" height="50" relative="1" as="geometry">
            <mxPoint x="539.8" y="540" as="sourcePoint" />
            <mxPoint x="579.8" y="540" as="targetPoint" />
          </mxGeometry>
        </mxCell>
        <mxCell id="ZxSBbp-IphkqUdOfR0Vp-350" value="" style="endArrow=none;html=1;rounded=0;" parent="1" edge="1">
          <mxGeometry width="50" height="50" relative="1" as="geometry">
            <mxPoint x="579.8" y="540" as="sourcePoint" />
            <mxPoint x="579.8" y="500" as="targetPoint" />
          </mxGeometry>
        </mxCell>
        <mxCell id="ZxSBbp-IphkqUdOfR0Vp-351" value="" style="endArrow=none;html=1;rounded=0;" parent="1" edge="1">
          <mxGeometry width="50" height="50" relative="1" as="geometry">
            <mxPoint x="659.8" y="540" as="sourcePoint" />
            <mxPoint x="659.8" y="500" as="targetPoint" />
          </mxGeometry>
        </mxCell>
        <mxCell id="ZxSBbp-IphkqUdOfR0Vp-352" value="" style="endArrow=none;html=1;rounded=0;" parent="1" edge="1">
          <mxGeometry width="50" height="50" relative="1" as="geometry">
            <mxPoint x="579.8" y="500" as="sourcePoint" />
            <mxPoint x="659.8" y="500" as="targetPoint" />
          </mxGeometry>
        </mxCell>
        <mxCell id="ZxSBbp-IphkqUdOfR0Vp-353" value="" style="endArrow=none;html=1;rounded=0;" parent="1" edge="1">
          <mxGeometry width="50" height="50" relative="1" as="geometry">
            <mxPoint x="660" y="540" as="sourcePoint" />
            <mxPoint x="780" y="540" as="targetPoint" />
          </mxGeometry>
        </mxCell>
        <mxCell id="ZxSBbp-IphkqUdOfR0Vp-356" value="" style="endArrow=none;html=1;rounded=0;" parent="1" edge="1">
          <mxGeometry width="50" height="50" relative="1" as="geometry">
            <mxPoint x="340" y="540" as="sourcePoint" />
            <mxPoint x="380" y="540" as="targetPoint" />
          </mxGeometry>
        </mxCell>
        <mxCell id="ZxSBbp-IphkqUdOfR0Vp-357" value="" style="endArrow=none;html=1;rounded=0;" parent="1" edge="1">
          <mxGeometry width="50" height="50" relative="1" as="geometry">
            <mxPoint x="380" y="540" as="sourcePoint" />
            <mxPoint x="380" y="500" as="targetPoint" />
          </mxGeometry>
        </mxCell>
        <mxCell id="ZxSBbp-IphkqUdOfR0Vp-358" value="" style="endArrow=none;html=1;rounded=0;" parent="1" edge="1">
          <mxGeometry width="50" height="50" relative="1" as="geometry">
            <mxPoint x="420" y="540" as="sourcePoint" />
            <mxPoint x="420" y="500" as="targetPoint" />
          </mxGeometry>
        </mxCell>
        <mxCell id="ZxSBbp-IphkqUdOfR0Vp-359" value="" style="endArrow=none;html=1;rounded=0;" parent="1" edge="1">
          <mxGeometry width="50" height="50" relative="1" as="geometry">
            <mxPoint x="380" y="500" as="sourcePoint" />
            <mxPoint x="420" y="500" as="targetPoint" />
          </mxGeometry>
        </mxCell>
        <mxCell id="ZxSBbp-IphkqUdOfR0Vp-360" value="" style="endArrow=none;html=1;rounded=0;" parent="1" edge="1">
          <mxGeometry width="50" height="50" relative="1" as="geometry">
            <mxPoint x="420" y="540" as="sourcePoint" />
            <mxPoint x="460" y="540" as="targetPoint" />
          </mxGeometry>
        </mxCell>
        <mxCell id="ZxSBbp-IphkqUdOfR0Vp-361" value="" style="endArrow=none;html=1;rounded=0;" parent="1" edge="1">
          <mxGeometry width="50" height="50" relative="1" as="geometry">
            <mxPoint x="460" y="540" as="sourcePoint" />
            <mxPoint x="460" y="500" as="targetPoint" />
          </mxGeometry>
        </mxCell>
        <mxCell id="ZxSBbp-IphkqUdOfR0Vp-362" value="" style="endArrow=none;html=1;rounded=0;" parent="1" edge="1">
          <mxGeometry width="50" height="50" relative="1" as="geometry">
            <mxPoint x="460" y="500" as="sourcePoint" />
            <mxPoint x="540" y="500" as="targetPoint" />
          </mxGeometry>
        </mxCell>
        <mxCell id="ZxSBbp-IphkqUdOfR0Vp-365" value="" style="endArrow=none;html=1;rounded=0;" parent="1" edge="1">
          <mxGeometry width="50" height="50" relative="1" as="geometry">
            <mxPoint x="760" y="300" as="sourcePoint" />
            <mxPoint x="780" y="300" as="targetPoint" />
          </mxGeometry>
        </mxCell>
        <mxCell id="ZxSBbp-IphkqUdOfR0Vp-366" value="1" style="text;html=1;align=center;verticalAlign=middle;whiteSpace=wrap;rounded=0;" parent="1" vertex="1">
          <mxGeometry x="60" y="260" width="40" height="40" as="geometry" />
        </mxCell>
        <mxCell id="ZxSBbp-IphkqUdOfR0Vp-367" value="2" style="text;html=1;align=center;verticalAlign=middle;whiteSpace=wrap;rounded=0;" parent="1" vertex="1">
          <mxGeometry x="60" y="320" width="40" height="40" as="geometry" />
        </mxCell>
        <mxCell id="ZxSBbp-IphkqUdOfR0Vp-368" value="3" style="text;html=1;align=center;verticalAlign=middle;whiteSpace=wrap;rounded=0;" parent="1" vertex="1">
          <mxGeometry x="60" y="380" width="40" height="40" as="geometry" />
        </mxCell>
        <mxCell id="ZxSBbp-IphkqUdOfR0Vp-369" value="4" style="text;html=1;align=center;verticalAlign=middle;whiteSpace=wrap;rounded=0;" parent="1" vertex="1">
          <mxGeometry x="60" y="440" width="40" height="40" as="geometry" />
        </mxCell>
        <mxCell id="ZxSBbp-IphkqUdOfR0Vp-370" value="5" style="text;html=1;align=center;verticalAlign=middle;whiteSpace=wrap;rounded=0;" parent="1" vertex="1">
          <mxGeometry x="60" y="500" width="40" height="40" as="geometry" />
        </mxCell>
        <mxCell id="ZxSBbp-IphkqUdOfR0Vp-371" value="..." style="text;html=1;align=center;verticalAlign=middle;whiteSpace=wrap;rounded=0;" parent="1" vertex="1">
          <mxGeometry x="60" y="550" width="40" height="40" as="geometry" />
        </mxCell>
        <mxCell id="ZxSBbp-IphkqUdOfR0Vp-376" value="" style="shape=flexArrow;endArrow=classic;html=1;rounded=0;endWidth=7.906976744186047;endSize=2.9000000000000004;" parent="1" edge="1">
          <mxGeometry width="50" height="50" relative="1" as="geometry">
            <mxPoint x="160" y="300" as="sourcePoint" />
            <mxPoint x="180" y="340" as="targetPoint" />
            <Array as="points">
              <mxPoint x="160" y="340" />
            </Array>
          </mxGeometry>
        </mxCell>
        <mxCell id="ZxSBbp-IphkqUdOfR0Vp-377" value="" style="shape=flexArrow;endArrow=classic;html=1;rounded=0;endWidth=7.906976744186047;endSize=2.9000000000000004;" parent="1" edge="1">
          <mxGeometry width="50" height="50" relative="1" as="geometry">
            <mxPoint x="200" y="360" as="sourcePoint" />
            <mxPoint x="220" y="400" as="targetPoint" />
            <Array as="points">
              <mxPoint x="200" y="400" />
            </Array>
          </mxGeometry>
        </mxCell>
        <mxCell id="ZxSBbp-IphkqUdOfR0Vp-378" value="" style="shape=flexArrow;endArrow=classic;html=1;rounded=0;endWidth=7.906976744186047;endSize=2.9000000000000004;" parent="1" edge="1">
          <mxGeometry width="50" height="50" relative="1" as="geometry">
            <mxPoint x="240" y="420" as="sourcePoint" />
            <mxPoint x="260" y="460" as="targetPoint" />
            <Array as="points">
              <mxPoint x="240" y="460" />
            </Array>
          </mxGeometry>
        </mxCell>
        <mxCell id="ZxSBbp-IphkqUdOfR0Vp-379" value="" style="shape=flexArrow;endArrow=classic;html=1;rounded=0;endWidth=7.906976744186047;endSize=2.9000000000000004;" parent="1" edge="1">
          <mxGeometry width="50" height="50" relative="1" as="geometry">
            <mxPoint x="280" y="480" as="sourcePoint" />
            <mxPoint x="300" y="520" as="targetPoint" />
            <Array as="points">
              <mxPoint x="280" y="520" />
            </Array>
          </mxGeometry>
        </mxCell>
      </root>
    </mxGraphModel>
  </diagram>
</mxfile>
